<?xml version="1.0" standalone="no"?>
<!DOCTYPE svg PUBLIC "-//W3C//DTD SVG 20010904//EN"
 "http://www.w3.org/TR/2001/REC-SVG-20010904/DTD/svg10.dtd">
<svg version="1.0" xmlns="http://www.w3.org/2000/svg"
 width="260.000000pt" height="260.000000pt" viewBox="0 0 260.000000 260.000000"
 preserveAspectRatio="xMidYMid meet">
<metadata>
Created by potrace 1.14, written by Peter Selinger 2001-2017
</metadata>
<g transform="translate(0.000000,260.000000) scale(0.100000,-0.100000)"
fill="#000000" stroke="none">
<path d="M1145 2528 c-207 -19 -437 -102 -596 -217 l-52 -37 -66 24 c-36 14
-95 32 -131 42 l-65 18 -14 -57 c-7 -31 -14 -71 -15 -90 -1 -33 0 -34 63 -52
35 -10 66 -20 68 -23 3 -3 -12 -27 -34 -53 -73 -87 -135 -192 -194 -328 -52
-120 -81 -271 -83 -430 -1 -174 8 -244 50 -385 105 -349 379 -649 718 -784
282 -113 676 -121 960 -19 429 154 740 532 812 986 17 109 8 325 -21 460 -27
130 -116 322 -206 442 -32 44 -55 82 -51 86 4 3 29 14 55 23 27 10 46 23 44
30 -2 6 -14 43 -27 81 -12 39 -24 71 -25 73 -4 5 -94 -24 -151 -48 l-50 -22
-70 52 c-122 91 -356 192 -494 213 -114 17 -145 20 -240 21 -58 1 -141 -2
-185 -6z m402 -197 c121 -24 277 -89 371 -153 l43 -30 -73 -50 c-102 -72 -282
-256 -355 -364 -64 -94 -156 -268 -168 -317 -4 -15 -10 -29 -14 -32 -4 -2 -22
31 -39 73 -92 224 -271 457 -466 607 -36 28 -65 53 -65 56 -1 8 96 73 164 110
86 47 225 93 320 105 28 3 52 8 54 10 7 7 176 -4 228 -15z m605 -363 c62 -73
80 -101 126 -193 41 -80 85 -204 96 -266 3 -19 8 -47 12 -64 13 -71 8 -253
-11 -345 -3 -14 -7 -37 -10 -52 -10 -52 -57 -173 -95 -243 -138 -251 -352
-425 -631 -514 -199 -63 -434 -44 -644 53 -256 118 -470 355 -558 618 -48 141
-66 334 -46 483 20 150 94 334 184 461 64 90 61 89 133 34 247 -187 418 -439
497 -734 31 -118 39 -170 47 -308 l3 -56 89 1 c71 2 90 5 91 17 1 8 5 53 9
100 24 311 153 601 371 829 82 86 259 228 287 230 3 1 26 -23 50 -51z"/>
<path d="M706 1477 c-53 -13 -122 -83 -132 -132 -23 -122 61 -225 181 -225
100 1 178 80 178 181 0 115 -114 203 -227 176z"/>
<path d="M1911 1465 c-137 -64 -143 -258 -11 -325 129 -66 273 28 265 172 -6
126 -140 206 -254 153z"/>
</g>
</svg>
