<svg version="1.0" xmlns="http://www.w3.org/2000/svg" width="346.667" height="346.667" viewBox="0 0 260 260"><path d="M114.5 7.2C93.8 9.1 70.8 17.4 54.9 28.9l-5.2 3.7-6.6-2.4C39.5 28.8 33.6 27 30 26l-6.5-1.8-1.4 5.7c-.7 3.1-1.4 7.1-1.5 9-.1 3.3 0 3.4 6.3 5.2 3.5 1 6.6 2 6.8 2.3.3.3-1.2 2.7-3.4 5.3-7.3 8.7-13.5 19.2-19.4 32.8-5.2 12-8.1 27.1-8.3 43-.1 17.4.8 24.4 5 38.5 10.5 34.9 37.9 64.9 71.8 78.4 28.2 11.3 67.6 12.1 96 1.9 42.9-15.4 74-53.2 81.2-98.6 1.7-10.9.8-32.5-2.1-46-2.7-13-11.6-32.2-20.6-44.2-3.2-4.4-5.5-8.2-5.1-8.6.4-.3 2.9-1.4 5.5-2.3 2.7-1 4.6-2.3 4.4-3-.2-.6-1.4-4.3-2.7-8.1-1.2-3.9-2.4-7.1-2.5-7.3-.4-.5-9.4 2.4-15.1 4.8l-5 2.2-7-5.2c-12.2-9.1-35.6-19.2-49.4-21.3-11.4-1.7-14.5-2-24-2.1-5.8-.1-14.1.2-18.5.6zm40.2 19.7c12.1 2.4 27.7 8.9 37.1 15.3l4.3 3-7.3 5c-10.2 7.2-28.2 25.6-35.5 36.4-6.4 9.4-15.6 26.8-16.8 31.7-.4 1.5-1 2.9-1.4 3.2-.4.2-2.2-3.1-3.9-7.3-9.2-22.4-27.1-45.7-46.6-60.7-3.6-2.8-6.5-5.3-6.5-5.6-.1-.8 9.6-7.3 16.4-11 8.6-4.7 22.5-9.3 32-10.5 2.8-.3 5.2-.8 5.4-1 .7-.7 17.6.4 22.8 1.5zm60.5 36.3c6.2 7.3 8 10.1 12.6 19.3 4.1 8 8.5 20.4 9.6 26.6.3 1.9.8 4.7 1.2 6.4 1.3 7.1.8 25.3-1.1 34.5-.3 1.4-.7 3.7-1 5.2-1 5.2-5.7 17.3-9.5 24.3-13.8 25.1-35.2 42.5-63.1 51.4-19.9 6.3-43.4 4.4-64.4-5.3-25.6-11.8-47-35.5-55.8-61.8-4.8-14.1-6.6-33.4-4.6-48.3 2-15 9.4-33.4 18.4-46.1 6.4-9 6.1-8.9 13.3-3.4 24.7 18.7 41.8 43.9 49.7 73.4 3.1 11.8 3.9 17 4.7 30.8l.3 5.6 8.9-.1c7.1-.2 9-.5 9.1-1.7.1-.8.5-5.3.9-10 2.4-31.1 15.3-60.1 37.1-82.9 8.2-8.6 25.9-22.8 28.7-23 .3-.1 2.6 2.3 5 5.1z"/><path d="M70.6 112.3c-5.3 1.3-12.2 8.3-13.2 13.2-2.3 12.2 6.1 22.5 18.1 22.5 10-.1 17.8-8 17.8-18.1 0-11.5-11.4-20.3-22.7-17.6zM191.1 113.5c-13.7 6.4-14.3 25.8-1.1 32.5 12.9 6.6 27.3-2.8 26.5-17.2-.6-12.6-14-20.6-25.4-15.3z"/></svg>