<svg xmlns="http://www.w3.org/2000/svg" xmlns:xlink="http://www.w3.org/1999/xlink" viewBox="0,0,256,256" width="64px" height="64px" fill-rule="nonzero"><g fill="#bfdb38" fill-rule="nonzero" stroke="none" stroke-width="1" stroke-linecap="butt" stroke-linejoin="miter" stroke-miterlimit="10" stroke-dasharray="" stroke-dashoffset="0" font-family="none" font-weight="none" font-size="none" text-anchor="none" style="mix-blend-mode: normal"><g transform="scale(4,4)"><path d="M30.03711,5c-6.101,0 -11.88256,2.0148 -16.60156,5.7168c-1.852,-0.786 -3.77414,-1.41433 -5.74414,-1.86133l-0.88477,3.90039c1.14,0.259 2.26138,0.58856 3.35938,0.97656c-4.602,4.99 -7.12695,11.43058 -7.12695,18.26758c0,7.218 2.80916,13.99694 7.91016,19.08594c5.092,5.103 11.87184,7.91406 19.08984,7.91406v-0.07617c0.635,0.045 1.27487,0.07617 1.92188,0.07617c0.316,0 0.62841,-0.01244 0.94141,-0.02344c0.327,0.012 0.65342,0.02344 0.98242,0.02344v-0.07617c13.992,-0.991 25.07617,-12.68383 25.07617,-26.92383c0,-6.762 -2.50591,-12.94745 -6.62891,-17.68945c0.82,-0.34 1.65563,-0.65188 2.51563,-0.92187l-1.19727,-3.81641c-1.517,0.476 -2.96709,1.06838 -4.37109,1.73438c-4.23,-3.546 -9.55953,-5.81747 -15.39453,-6.23047v-0.07617c-0.328,0 -0.65447,0.01144 -0.98047,0.02344c-0.314,-0.011 -0.62736,-0.02344 -0.94336,-0.02344c-0.647,0 -1.28783,0.03117 -1.92383,0.07617zM33.19141,9.0332c4.58,0.243 8.80692,1.83486 12.29492,4.38086c-6.261,4.028 -10.97761,10.00777 -13.47461,17.00977c-2.348,-6.595 -6.68586,-12.32038 -12.50586,-16.35937c3.885,-3.132 8.64455,-4.88225 13.68555,-5.03125zM48.62109,16.16797c3.924,4.127 6.33984,9.70103 6.33984,15.83203c0,12.27 -9.65753,22.3248 -21.76953,22.9668c-5.886,-0.174 -11.39336,-2.52398 -15.56836,-6.70898c-4.346,-4.336 -6.73828,-10.11081 -6.73828,-16.25781c0,-5.614 2.01678,-10.90294 5.67578,-15.08594c8.355,5.477 13.43945,14.81594 13.43945,25.08594h4c0,-10.857 5.67309,-20.55203 14.62109,-25.83203zM19,28c-2.20914,0 -4,1.79086 -4,4c0,2.20914 1.79086,4 4,4c2.20914,0 4,-1.79086 4,-4c0,-2.20914 -1.79086,-4 -4,-4zM46,28c-2.20914,0 -4,1.79086 -4,4c0,2.20914 1.79086,4 4,4c2.20914,0 4,-1.79086 4,-4c0,-2.20914 -1.79086,-4 -4,-4z"></path></g></g></svg>